<?xml version="1.0" encoding="UTF-8" standalone="no"?>
<!-- Created with Inkscape (http://www.inkscape.org/) -->

<svg
   xmlns:dc="http://purl.org/dc/elements/1.1/"
   xmlns:cc="http://creativecommons.org/ns#"
   xmlns:rdf="http://www.w3.org/1999/02/22-rdf-syntax-ns#"
   xmlns:svg="http://www.w3.org/2000/svg"
   xmlns="http://www.w3.org/2000/svg"
   xmlns:sodipodi="http://sodipodi.sourceforge.net/DTD/sodipodi-0.dtd"
   xmlns:inkscape="http://www.inkscape.org/namespaces/inkscape"
   width="210mm"
   height="297mm"
   viewBox="0 0 744.09448819 1052.3622047"
   id="svg2"
   version="1.1"
   inkscape:version="0.91 r13725"
   sodipodi:docname="Kerze.svg">
  <defs
     id="defs4" />
  <sodipodi:namedview
     id="base"
     pagecolor="#ffffff"
     bordercolor="#666666"
     borderopacity="1.0"
     inkscape:pageopacity="0.0"
     inkscape:pageshadow="2"
     inkscape:zoom="0.7"
     inkscape:cx="-58.222123"
     inkscape:cy="616.66964"
     inkscape:document-units="px"
     inkscape:current-layer="layer1"
     showgrid="false"
     inkscape:window-width="1536"
     inkscape:window-height="801"
     inkscape:window-x="-8"
     inkscape:window-y="-8"
     inkscape:window-maximized="1" />
  <metadata
     id="metadata7">
    <rdf:RDF>
      <cc:Work
         rdf:about="">
        <dc:format>image/svg+xml</dc:format>
        <dc:type
           rdf:resource="http://purl.org/dc/dcmitype/StillImage" />
      </cc:Work>
    </rdf:RDF>
  </metadata>
  <g
     inkscape:label="Ebene 1"
     inkscape:groupmode="layer"
     id="layer1">
    <g
       id="g4572">
      <path
         inkscape:connector-curvature="0"
         id="path4180-2-3"
         d="m 159.8726,71.914892 c -1.32274,-0.183268 -7.56158,23.182655 -8.27735,31.000008 -0.5964,6.51403 1.09056,12.41595 3.9375,13.77148 3.63335,1.72995 4.20477,2.25099 3.47656,3.77734 0.66931,-0.0127 1.33866,-0.0199 2.00782,-0.043 0.0275,-3e-4 0.0583,3.7e-4 0.0859,0 -0.45722,-1.54816 0.34497,-2.61915 4.25782,-5.95703 1.83527,-1.56558 2.33422,-2.75283 2.66601,-6.35156 0.42696,-4.63096 0.0497,-6.32669 -4.64062,-20.908203 -1.51788,-4.718904 -2.81451,-10.07288 -2.88086,-11.89844 -0.0663,-1.82556 -0.35049,-3.351505 -0.63281,-3.390625 z m 4.92187,48.412108 c -0.16882,-0.0209 -0.36287,0.0529 -0.57617,0.16993 0.2969,0.006 0.60787,0.007 0.92187,0.004 -0.1103,-0.0963 -0.22383,-0.15872 -0.3457,-0.17383 z"
         style="fill:#eea300;fill-opacity:1" />
      <path
         id="path4180-2-3-2"
         d="m 159.88341,104.05142 c -0.64197,-0.0556 -3.66991,7.03689 -4.0173,9.40978 -0.28946,1.97727 0.52929,3.76874 1.91101,4.1802 1.7634,0.52511 2.04073,0.68327 1.68731,1.14658 0.32484,-0.004 0.6497,-0.006 0.97446,-0.013 0.0133,-9e-5 0.0283,1.2e-4 0.0417,0 -0.2219,-0.46992 0.16742,-0.79502 2.06647,-1.8082 0.89073,-0.47522 1.13289,-0.83559 1.29392,-1.92796 0.20722,-1.40568 0.0241,-1.92041 -2.25227,-6.34649 -0.73668,-1.43237 -1.36598,-3.05752 -1.39818,-3.61165 -0.0322,-0.55414 -0.17011,-1.01732 -0.30713,-1.0292 z m 2.38877,14.69506 c -0.0819,-0.006 -0.17612,0.016 -0.27964,0.0516 0.14409,0.001 0.29502,0.002 0.44742,0.001 -0.0535,-0.0293 -0.10864,-0.0482 -0.16778,-0.0528 z"
         style="fill:#ff0000"
         inkscape:connector-curvature="0" />
      <path
         style="fill:#ffff00"
         d="m 150.21975,183.38748 c -0.11025,-1.60564 -0.12133,-4.26667 -0.0697,-16.76666 0.0134,-3.25097 -0.20625,-7.17789 -0.48814,-8.72651 -0.28189,-1.5486 -0.2261,-4.05498 0.124,-5.56972 0.38564,-1.66865 0.17478,-5.74725 -0.535,-10.34837 -1.55231,-10.06262 -1.0846,-16.30898 1.36603,-18.24413 1.00327,-0.79222 3.06564,-1.27711 4.58307,-1.07752 1.61663,0.21303 3.17422,-0.38936 3.76199,-1.45402 1.14449,-2.07303 0.88034,-2.43639 -3.17473,-4.36714 -2.84695,-1.35553 -4.53495,-7.25795 -3.93854,-13.77198 0.71577,-7.817303 6.95507,-31.18362 8.2778,-31.000352 0.28233,0.03912 0.56761,1.564749 0.63397,3.390309 0.0663,1.82556 1.36253,7.180087 2.88041,11.89899 4.69028,14.581503 5.06633,16.276113 4.63937,20.907063 -0.33179,3.59874 -0.83072,4.78773 -2.66599,6.35331 -4.19745,3.58065 -4.8334,4.54452 -4.15426,6.29651 0.47364,1.22187 1.02999,1.27757 2.30316,0.23059 1.49017,-1.22539 1.8226,-0.94464 2.96051,2.50032 1.0424,3.15588 1.12933,4.88781 0.46532,9.27254 -0.44909,2.9655 -1.50462,7.29339 -2.34565,9.61756 -1.93584,5.34962 -2.93043,22.21395 -1.82654,30.97081 0.40595,3.22025 0.68845,6.39329 0.62779,7.05119 -0.39181,4.24976 -13.1428,6.94452 -13.42482,2.83715 z m 13.20654,-71.36067 c 1.09269,-1.6719 0.0594,-7.65948 -2.7756,-16.084123 -2,-5.94323 -2.05152,-5.99788 -3.09107,-3.27851 -0.58145,1.521 -1.39381,5.989311 -1.80528,9.929573 -0.59807,5.72739 -0.52093,7.58174 0.38467,9.24646 1.25545,2.30783 5.82447,2.42483 7.28728,0.1866 z"
         id="path4176-3-0"
         inkscape:connector-curvature="0" />
      <path
         inkscape:connector-curvature="0"
         id="path4178-2-1"
         d="m 164.86854,90.032668 c -0.003,0.1277 0.001,0.2551 -3.4e-4,0.38284 0.058,0.0481 0.11237,0.10117 0.16836,0.15174 -0.0584,-0.1841 -0.1077,-0.34519 -0.16799,-0.53457 z m -6.73279,1.23363 c -0.0132,0.007 -0.0274,0.0115 -0.0405,0.0181 0.0101,0.055 0.0228,0.10909 0.0333,0.16396 0.004,-0.009 0.006,-0.0138 0.01,-0.0224 -0.001,-0.0532 -0.002,-0.10642 -0.003,-0.15972 z m 5.92749,18.799892 c -0.003,0.0414 -3.6e-4,0.0901 -0.004,0.13024 0.007,-0.0202 0.009,-0.026 0.0158,-0.0454 -0.003,-0.0286 -0.008,-0.0563 -0.0115,-0.0849 z m -4.24839,6.94289 c -0.0235,0.0295 -0.0472,0.0509 -0.071,0.0758 0.0845,0.0113 0.16802,0.0282 0.25307,0.0326 -0.0388,-0.0278 -0.0762,-0.0557 -0.1359,-0.083 -0.0193,-0.0136 -0.03,-0.0139 -0.0461,-0.0254 z m 1.71407,2.07103 c -0.0878,0.0111 -0.1178,0.008 -0.33686,0.0556 -0.0279,-0.0218 -0.0613,-0.037 -0.0918,-0.0556 -0.39854,0.13712 -0.86771,0.20326 -0.90099,0.19859 -0.1343,0.0127 -0.26882,0.0222 -0.40302,0.0369 -0.024,0.36829 -0.20383,0.78514 -0.50017,1.32189 -0.50642,0.91732 -2.64292,1.70685 -4.74768,1.75362 -6.58688,0.14635 -8.20574,5.84316 -5.81832,20.47807 0.59352,3.63827 0.9677,7.83086 0.83076,9.31606 -0.13693,1.48522 -0.16477,6.8509 -0.0616,11.9249 0.10319,5.07398 0.18098,11.29536 0.17264,13.82418 -0.008,2.52882 0.21374,5.36863 0.49287,6.31086 0.69101,2.33244 7.13755,3.08872 10.1659,1.19211 3.59786,-2.25325 4.50233,-5.31828 3.63892,-12.3258 -1.00491,-8.15608 -0.16133,-22.73864 1.84582,-31.90839 2.29558,-10.48749 2.50485,-13.91115 1.1034,-18.15392 -1.08215,-3.27623 -1.41881,-3.5466 -2.903,-2.32612 -1.27317,1.04698 -1.82932,0.99316 -2.30296,-0.22874 -0.19723,-0.50881 -0.2635,-0.95504 -0.18387,-1.4143 z"
         style="fill:#d45500;fill-opacity:1" />
      <path
         style="fill:#ff6600"
         d="m 162.12308,181.74242 c 0.0581,-0.57674 0.47918,-1.88401 0.93403,-2.90526 0.7127,-1.6002 0.80046,-1.55334 0.63492,0.33898 -0.10637,1.20759 -0.52596,2.51505 -0.93403,2.90526 -0.40807,0.39021 -0.69377,0.23767 -0.63492,-0.33898 z m -12.82215,-25.23326 c -0.34373,-3.35263 -0.0759,-4.16831 0.46897,-1.42849 0.26981,1.35659 0.32464,2.7204 0.12185,3.03068 -0.2028,0.31029 -0.46866,-0.41071 -0.59082,-1.60219 z m 14.68642,-14.34278 c 1.67867,-7.29175 2.50486,-13.79203 1.87376,-14.74239 -0.35862,-0.54005 -2.15927,-0.2417 -4.00145,0.66312 -2.12603,1.04416 -5.00788,1.28102 -7.89016,0.64845 -3.41408,-0.74929 -4.74841,-0.54564 -5.37764,0.82121 -0.64566,1.40246 -0.72443,1.09018 -0.34471,-1.36682 0.61363,-3.97064 3.23416,-6.11109 6.89263,-5.62989 1.61663,0.21303 3.17422,-0.38935 3.76199,-1.45401 1.14449,-2.07304 0.88034,-2.43639 -3.17473,-4.36714 -2.84694,-1.35553 -4.53494,-7.25796 -3.93854,-13.77199 0.71577,-7.817291 6.95507,-31.183618 8.2778,-31.000349 0.28233,0.03912 0.56762,1.564749 0.63397,3.390305 0.0663,1.825556 1.36253,7.180106 2.88041,11.898993 4.69029,14.581511 5.06634,16.276121 4.63937,20.907071 -0.33179,3.59873 -0.83071,4.78773 -2.66599,6.3533 -4.19745,3.58065 -4.83339,4.54452 -4.15426,6.29652 0.47364,1.22186 1.03,1.27757 2.30316,0.23059 1.48419,-1.22048 1.82046,-0.95113 2.90262,2.3251 1.34897,4.08392 1.16384,8.71157 -0.6107,15.26563 -1.43313,5.29309 -3.07998,8.19073 -2.00752,3.53224 z m 0.69759,-28.68066 c 3.33189,-2.91413 3.63941,-7.16029 1.1028,-15.227233 -1.1649,-3.704618 -2.86979,-9.323308 -3.78866,-12.485958 -0.91887,-3.16266 -2.03522,-6.121647 -2.48079,-6.575517 -1.93819,-1.97429 -6.93669,20.118665 -6.60661,29.200528 0.25594,7.04174 6.46938,9.72706 11.77326,5.08818 z"
         id="path4170-5-7"
         inkscape:connector-curvature="0" />
      <path
         inkscape:connector-curvature="0"
         id="path4170-5-7-4"
         d="m 159.78248,119.74531 c -0.003,5.2e-4 -0.006,10e-4 -0.01,0.002 -0.005,0.0187 -0.0162,0.0416 -0.0215,0.0606 0.0102,-0.0212 0.0194,-0.0434 0.0312,-0.0625 z m 5.55078,0.4668 c -0.33354,-0.0415 -0.72859,0.20638 -1.28515,0.66406 -0.94801,0.77959 -1.4973,0.94588 -1.91211,0.47656 -0.0177,0.008 -0.0353,0.0172 -0.0527,0.0254 -0.0139,0.0112 -0.025,0.0253 -0.041,0.0332 -0.0774,0.0382 -0.21193,0.0966 -0.30274,0.11328 -0.009,0.002 -0.0141,-0.002 -0.0273,0.002 -0.17102,0.14334 -0.36343,0.14846 -0.58594,0.1211 -0.0276,-0.002 -0.0566,-0.009 -0.084,-0.006 -0.008,10e-4 0.0238,0.008 0.0195,0.0156 -0.008,0.0135 -0.0283,0.0156 -0.043,0.0215 -0.14919,0.06 -0.0319,0.0142 -0.18164,0.082 -0.0964,0.0346 -0.19175,0.0243 -0.28906,0.0137 -0.016,0.009 -0.0367,0.0235 -0.043,0.0273 -0.3141,0.16909 -0.66809,0.11461 -1.00781,0.0918 -0.0334,-5.2e-4 -0.0686,-0.007 -0.10157,-0.002 -0.0148,0.002 -0.0235,0.017 -0.0371,0.0234 -0.0227,0.0107 -0.0461,0.0206 -0.0703,0.0273 -0.0461,0.0128 -0.0945,0.0164 -0.14062,0.0293 -0.0386,0.0108 -0.0736,0.0336 -0.11133,0.0469 -0.22518,0.0364 -0.45238,5e-5 -0.67969,0.002 -0.0324,6.6e-4 -0.0653,9.6e-4 -0.0977,0.002 -0.15003,0.003 -0.10837,0.0155 -0.24218,0.0527 -0.0889,0.0247 -0.12709,0.017 -0.0723,0.0234 -0.0734,0.0467 -0.15136,0.0574 -0.23047,0.0586 -0.005,7e-5 -0.009,0.004 -0.0137,0.004 -0.65438,0.24297 -1.42688,0.33625 -2.21484,0.23242 -3.65848,-0.4812 -6.27896,1.65827 -6.89258,5.62891 -0.37972,2.457 -0.30191,2.76964 0.34375,1.36718 0.62923,-1.36685 1.96483,-1.5696 5.37891,-0.82031 2.88228,0.63257 5.76263,0.39572 7.88867,-0.64844 1.84217,-0.90482 3.64333,-1.20411 4.00195,-0.66406 0.6311,0.95036 -0.19439,7.45044 -1.87305,14.74219 -1.07246,4.65849 0.57469,1.76184 2.00782,-3.53125 1.77454,-6.55406 1.95834,-11.18171 0.60937,-15.26563 -0.67635,-2.04764 -1.06129,-2.92103 -1.61719,-2.99023 z m -15.74609,33.0625 c -0.13411,0.0992 -0.13475,1.1825 0.0586,3.06836 0.12216,1.19148 0.38901,1.91185 0.5918,1.60156 0.20279,-0.31028 0.14676,-1.67466 -0.12305,-3.03125 -0.23839,-1.19867 -0.42303,-1.7158 -0.52734,-1.63867 z m 14.46289,24.25586 c -0.0903,-0.0482 -0.29209,0.34052 -0.64844,1.14062 -0.45485,1.02125 -0.87546,2.32756 -0.93359,2.9043 -0.0589,0.57665 0.2267,0.73005 0.63476,0.33984 0.40807,-0.39021 0.82918,-1.69866 0.93555,-2.90625 0.0828,-0.94616 0.10206,-1.43028 0.0117,-1.47851 z"
         style="fill:#ff6600" />
    </g>
  </g>
</svg>
