<?xml version="1.0" encoding="UTF-8" standalone="no"?>
<!-- Created with Inkscape (http://www.inkscape.org/) -->

<svg
   xmlns:dc="http://purl.org/dc/elements/1.1/"
   xmlns:cc="http://creativecommons.org/ns#"
   xmlns:rdf="http://www.w3.org/1999/02/22-rdf-syntax-ns#"
   xmlns:svg="http://www.w3.org/2000/svg"
   xmlns="http://www.w3.org/2000/svg"
   xmlns:sodipodi="http://sodipodi.sourceforge.net/DTD/sodipodi-0.dtd"
   xmlns:inkscape="http://www.inkscape.org/namespaces/inkscape"
   width="117.54611mm"
   height="114.1954mm"
   viewBox="0 0 416.50197 404.62936"
   id="svg2"
   version="1.1"
   inkscape:version="0.91 r13725"
   sodipodi:docname="Kuchen mit Kerzen monochrom.svg">
  <defs
     id="defs4" />
  <sodipodi:namedview
     id="base"
     pagecolor="#ffffff"
     bordercolor="#666666"
     borderopacity="1.0"
     inkscape:pageopacity="0.0"
     inkscape:pageshadow="2"
     inkscape:zoom="0.7"
     inkscape:cx="427.2854"
     inkscape:cy="133.8691"
     inkscape:document-units="px"
     inkscape:current-layer="layer1"
     showgrid="false"
     inkscape:window-width="1536"
     inkscape:window-height="801"
     inkscape:window-x="-8"
     inkscape:window-y="-8"
     inkscape:window-maximized="1"
     fit-margin-top="0"
     fit-margin-left="0"
     fit-margin-right="0"
     fit-margin-bottom="0" />
  <metadata
     id="metadata7">
    <rdf:RDF>
      <cc:Work
         rdf:about="">
        <dc:format>image/svg+xml</dc:format>
        <dc:type
           rdf:resource="http://purl.org/dc/dcmitype/StillImage" />
        <dc:title></dc:title>
      </cc:Work>
    </rdf:RDF>
  </metadata>
  <g
     inkscape:label="Ebene 1"
     inkscape:groupmode="layer"
     id="layer1"
     transform="translate(462.32938,-193.36171)">
    <g
       id="g4171">
      <path
         style="fill:#000000;fill-opacity:1"
         d="m -309.64201,595.6989 c -71.40925,-6.32999 -128.85092,-30.97035 -139.47016,-59.82753 -1.68931,-4.5906 -4.49989,-9.9636 -6.24573,-11.94001 -5.96422,-6.75194 -7.2309,-13.38038 -5.93379,-31.05112 1.03055,-14.03935 1.95751,-17.75345 5.47389,-21.93241 3.91577,-4.65363 4.23324,-6.599 4.23324,-25.93967 0,-17.15167 -0.49622,-21.09914 -2.76156,-21.96845 -4.14657,-1.59117 -8.02345,-10.35862 -7.98296,-18.05325 0.0507,-9.64224 4.35164,-34.87522 6.68341,-39.21083 5.33323,-9.91641 21.74795,-22.11154 44.53457,-33.08646 12.82097,-6.17509 26.54498,-12.41582 30.49783,-13.86833 8.73485,-3.2097 34.27541,-8.0281 69.17452,-13.05028 14.32901,-2.06202 32.11675,-4.64228 39.52831,-5.73391 32.713,-4.81819 77.74255,2.27767 139.16962,21.93067 59.263201,18.96065 59.475001,19.04965 71.213301,29.91725 8.7261,8.07884 11.1658,11.66073 13.6046,19.97418 2.6527,9.04233 2.7161,12.25224 0.5906,29.8942 -2.1196,17.59317 -2.3633,27.19133 -1.6994,66.92861 0.4194,25.10628 -2.917,66.0887 -5.8191,71.47703 -10.9339,20.30097 -49.466601,39.99359 -98.474701,50.32687 -34.95517,7.37023 -105.45896,9.72166 -156.31649,5.21344 z m 132.95889,-38.59292 c 4.4469,-0.9757 13.1311,-3.87358 19.2982,-6.43974 10.3171,-4.29299 11.3706,-5.25151 13.1874,-11.9983 2.7509,-10.21639 12.1229,-19.24693 19.8894,-19.16476 3.3105,0.035 8.0404,1.21915 10.5109,2.63144 7.0251,4.01588 10.1758,3.1993 14.470901,-3.75033 7.1294,-11.53563 10.1737,-13.31872 22.7396,-13.31872 12.5832,0 12.2272,0.33973 16.4709,-15.72148 1.1097,-4.1999 2.9864,-10.84482 4.1704,-14.76651 1.1841,-3.92166 1.6358,-7.64743 1.0038,-8.27941 -0.632,-0.63202 -6.0152,1.80686 -11.9625,5.41965 -17.7083,10.75725 -57.476401,29.10883 -73.844201,34.07649 -16.7963,5.09771 -51.50362,11.71782 -86.24359,16.45017 -38.38599,5.22902 -72.43414,2.06355 -127.56863,-11.86014 -19.27005,-4.86647 -38.62117,-9.70768 -43.00251,-10.75824 -4.38132,-1.05062 -13.27519,-5.40568 -19.76416,-9.67797 -14.4343,-9.50347 -17.48233,-11.04383 -24.45989,-12.36115 -8.71002,-1.6444 -10.53534,0.74122 -11.68386,15.27019 -1.84782,23.37522 2.89827,30.40403 14.07693,20.84742 8.57162,-7.32787 22.02981,-7.12772 36.41886,0.54157 12.42188,6.62077 14.75352,8.99273 21.27869,21.64644 3.06239,5.93864 6.2907,9.79907 8.46507,10.12255 1.93315,0.2876 8.03227,-1.88775 13.55363,-4.83412 5.9086,-3.15299 11.53819,-4.9649 13.68321,-4.40395 2.00443,0.52414 5.76936,-0.4393 8.36652,-2.14103 4.43833,-2.90811 7.60776,-2.9283 52.73809,-0.33596 26.40879,1.51693 50.66379,2.78044 53.90001,2.80783 9.56298,0.0807 18.46468,3.90393 26.64309,11.44251 6.3153,5.82125 13.09939,9.53255 18.68004,10.21902 0.4941,0.0606 4.5367,-0.68777 8.9837,-1.66347 z m -179.67045,-76.30087 c 1.35328,-1.6306 1.80228,-4.89046 1.13386,-8.2324 -1.51197,-7.55997 1.37432,-12.10843 10.23705,-16.13244 13.64866,-6.19698 33.03148,-4.10567 60.59696,6.53815 8.45585,3.26504 19.65261,6.50396 24.88173,7.19765 11.87811,1.57567 33.86419,-2.20115 38.87796,-6.67856 11.71451,-10.46137 22.10406,-7.49842 32.24532,9.19591 3.61217,5.94619 7.68287,10.81126 9.04617,10.81126 1.3633,0 4.8686,-3.43628 7.7895,-7.63615 11.403,-16.39596 25.7171,-26.50193 37.5374,-26.50193 2.7826,0 9.4517,2.82986 14.8202,6.28859 11.4397,7.37018 17.7006,7.89119 24.504101,2.03913 4.0638,-3.49559 5.0169,-5.91762 5.3722,-13.65271 0.5583,-12.15175 3.8243,-15.61551 17.2065,-18.24831 7.8059,-1.53571 11.4146,-3.23626 13.4456,-6.33598 3.8522,-5.87925 6.6252,-32.7843 4.2774,-41.50304 -4.2937,-15.94556 -18.7722,-27.9124 -42.6966,-35.28965 -8.701301,-2.68314 -29.161401,-9.23068 -45.466901,-14.55011 -16.3054,-5.31943 -38.5401,-11.38379 -49.41034,-13.47638 -10.87028,-2.0926 -23.65091,-4.65839 -28.4014,-5.70177 -9.18875,-2.0182 -44.36183,-0.85353 -63.2324,2.0938 -5.92922,0.92606 -18.05723,2.56785 -26.95112,3.64844 -8.89387,1.08056 -27.08587,3.96255 -40.42668,6.40442 -21.89111,4.00688 -26.88366,5.68535 -51.2071,17.21556 -40.43832,19.16924 -46.9529,25.98275 -51.22179,53.57229 -2.8674,18.53182 -0.99309,23.35763 9.07201,23.35763 14.29205,0 18.56734,5.78292 20.32304,27.48974 1.39736,17.27657 3.20551,21.02228 10.14792,21.02228 5.95407,0 8.98371,-4.06682 8.98371,-12.05928 0,-7.32323 4.62874,-13.0951 10.50162,-13.0951 7.3851,0 20.41071,7.3301 24.81865,13.96659 2.14847,3.23469 4.42173,9.29869 5.05171,13.47556 2.81895,18.69031 3.64775,20.19413 8.14372,14.77681 z"
         id="path4163"
         inkscape:connector-curvature="0" />
      <path
         style="fill:#000000;fill-opacity:1"
         d="m -281.26593,419.87881 c -0.45821,-3.26699 -0.50426,-8.68136 -0.28968,-34.11499 0.0557,-6.61472 -0.85719,-14.60479 -2.02874,-17.75576 -1.17155,-3.15092 -0.93968,-8.25063 0.51535,-11.33266 1.60275,-3.39519 0.7264,-11.69388 -2.22349,-21.05575 -6.45149,-20.47433 -4.50766,-33.18374 5.6773,-37.12118 4.16965,-1.61192 12.74099,-2.59852 19.04751,-2.19242 6.71881,0.43345 13.19225,-0.79223 15.63506,-2.95848 4.75656,-4.21798 3.65874,-4.9573 -13.19437,-8.88578 -11.83209,-2.75809 -18.84752,-14.7677 -16.3688,-28.02174 2.97478,-15.9058 28.90568,-63.44906 34.40302,-63.07616 1.17338,0.0796 2.35902,3.18378 2.63482,6.89823 0.27555,3.71445 5.66275,14.60927 11.97115,24.21078 19.49308,29.66886 21.05597,33.11687 19.2815,42.53943 -1.37894,7.32233 -3.45252,9.74155 -11.08001,12.92703 -17.44485,7.28552 -20.0879,9.24669 -17.26535,12.81145 1.96847,2.48613 4.2807,2.59947 9.57207,0.46918 6.19323,-2.49329 7.57483,-1.92205 12.30405,5.08738 4.33228,6.42125 4.69356,9.94519 1.9339,18.86677 -1.86645,6.03387 -6.25329,14.8398 -9.74866,19.56877 -8.04547,10.88482 -12.17904,45.19854 -7.59121,63.01605 1.68715,6.55222 2.86124,13.00837 2.60913,14.347 -1.62838,8.64695 -54.62225,14.12996 -55.79434,5.77272 z m 54.88716,-145.19697 c 4.54128,-3.40181 0.24687,-15.58469 -11.53556,-32.72624 -8.31212,-12.09264 -8.52624,-12.20383 -12.84667,-6.67075 -2.41654,3.09476 -5.79275,12.1864 -7.50285,20.20362 -2.48561,11.65347 -2.16501,15.4265 1.59871,18.81369 5.21773,4.69572 24.20684,4.93378 30.28637,0.37968 z"
         id="path4176-3-0"
         inkscape:connector-curvature="0" />
    </g>
  </g>
</svg>
