<?xml version="1.0" encoding="UTF-8" standalone="no"?>
<!-- Created with Inkscape (http://www.inkscape.org/) -->

<svg
   xmlns:dc="http://purl.org/dc/elements/1.1/"
   xmlns:cc="http://creativecommons.org/ns#"
   xmlns:rdf="http://www.w3.org/1999/02/22-rdf-syntax-ns#"
   xmlns:svg="http://www.w3.org/2000/svg"
   xmlns="http://www.w3.org/2000/svg"
   xmlns:sodipodi="http://sodipodi.sourceforge.net/DTD/sodipodi-0.dtd"
   xmlns:inkscape="http://www.inkscape.org/namespaces/inkscape"
   width="512"
   height="512"
   viewBox="0 0 479.99998 480.00001"
   id="svg2"
   version="1.1"
   inkscape:version="0.92.4 (5da689c313, 2019-01-14)"
   sodipodi:docname="Kuchen mit Kerzen.svg"
   inkscape:export-filename="C:\Users\tkuen\Entwicklung\Bitbucket\tkbirthdayreminder\Grafiken\web_hi_res_512.png"
   inkscape:export-xdpi="96"
   inkscape:export-ydpi="96">
  <defs
     id="defs4" />
  <sodipodi:namedview
     id="base"
     pagecolor="#ffffff"
     bordercolor="#666666"
     borderopacity="1.0"
     inkscape:pageopacity="0.0"
     inkscape:pageshadow="2"
     inkscape:zoom="1.4"
     inkscape:cx="154.45273"
     inkscape:cy="236.53248"
     inkscape:document-units="px"
     inkscape:current-layer="layer1"
     showgrid="false"
     inkscape:window-width="1920"
     inkscape:window-height="1001"
     inkscape:window-x="-9"
     inkscape:window-y="-9"
     inkscape:window-maximized="1"
     fit-margin-top="0"
     fit-margin-left="0"
     fit-margin-right="0"
     fit-margin-bottom="0"
     units="px" />
  <metadata
     id="metadata7">
    <rdf:RDF>
      <cc:Work
         rdf:about="">
        <dc:format>image/svg+xml</dc:format>
        <dc:type
           rdf:resource="http://purl.org/dc/dcmitype/StillImage" />
        <dc:title></dc:title>
      </cc:Work>
    </rdf:RDF>
  </metadata>
  <g
     inkscape:label="Ebene 1"
     inkscape:groupmode="layer"
     id="layer1"
     transform="translate(-44.813486,-123.91046)">
    <g
       id="g130">
      <rect
         style="fill:#e6e6e6;stroke-width:2.18407273"
         y="124.9603"
         x="45.014389"
         height="478.28256"
         width="479.99728"
         id="rect21" />
      <g
         transform="matrix(1.0925754,0,0,1.0925754,289.69345,-33.094385)"
         id="g81">
        <g
           id="g4176"
           transform="translate(-936.96429,160.53571)">
          <path
             style="fill:#f4e3d7"
             d="m 874.64374,407.12748 c -71.40925,-6.32999 -128.85092,-30.97035 -139.47017,-59.82753 -1.6893,-4.5906 -4.49988,-9.9636 -6.24572,-11.94001 -5.96423,-6.75194 -7.23091,-13.38038 -5.9338,-31.05112 1.03056,-14.03935 1.95752,-17.75345 5.4739,-21.93241 3.91577,-4.65363 4.23324,-6.599 4.23324,-25.93967 0,-17.15167 -0.49622,-21.09914 -2.76156,-21.96845 -4.14657,-1.59117 -8.02345,-10.35862 -7.98297,-18.05325 0.0507,-9.64224 4.35165,-34.87522 6.68342,-39.21083 5.33323,-9.91641 21.74795,-22.11154 44.53457,-33.08646 12.82097,-6.17509 26.54498,-12.41582 30.49783,-13.86833 8.73485,-3.2097 34.27541,-8.0281 69.17452,-13.05028 14.32901,-2.06202 32.11675,-4.64228 39.52831,-5.73391 32.713,-4.81819 77.74255,2.27767 139.16959,21.93067 59.2632,18.96065 59.475,19.04965 71.2133,29.91725 8.7261,8.07884 11.1658,11.66073 13.6047,19.97418 2.6526,9.04233 2.716,12.25224 0.5905,29.8942 -2.1196,17.59317 -2.3633,27.19133 -1.6994,66.92861 0.4195,25.10628 -2.917,66.0887 -5.8191,71.47703 -10.9339,20.30097 -49.4665,39.99359 -98.4747,50.32687 -34.95514,7.37023 -105.45893,9.72166 -156.31646,5.21344 z"
             id="path4165"
             inkscape:connector-curvature="0" />
          <path
             style="fill:#ff5555"
             d="m 876.07231,407.12747 c -71.40925,-6.32999 -128.85092,-30.97035 -139.47016,-59.82753 -1.68931,-4.5906 -4.49989,-9.9636 -6.24573,-11.94001 -5.96422,-6.75194 -7.2309,-13.38038 -5.93379,-31.05112 1.03055,-14.03935 1.95751,-17.75345 5.47389,-21.93241 3.91577,-4.65363 4.23324,-6.599 4.23324,-25.93967 0,-17.15167 -0.49622,-21.09914 -2.76156,-21.96845 -4.14657,-1.59117 -8.02345,-10.35862 -7.98296,-18.05325 0.0507,-9.64224 4.35164,-34.87522 6.68341,-39.21083 5.33323,-9.91641 21.74795,-22.11154 44.53457,-33.08646 12.82097,-6.17509 26.54498,-12.41582 30.49783,-13.86833 8.73485,-3.2097 34.27541,-8.0281 69.17452,-13.05028 14.32901,-2.06202 32.11675,-4.64228 39.52831,-5.73391 32.713,-4.81819 77.74255,2.27767 139.16962,21.93067 59.2632,18.96065 59.475,19.04965 71.2133,29.91725 8.7261,8.07884 11.1658,11.66073 13.6046,19.97418 2.6527,9.04233 2.7161,12.25224 0.5906,29.8942 -2.1196,17.59317 -2.3633,27.19133 -1.6994,66.92861 0.4194,25.10628 -2.917,66.0887 -5.8191,71.47703 -10.9339,20.30097 -49.4666,39.99359 -98.4747,50.32687 -34.95517,7.37023 -105.45896,9.72166 -156.31649,5.21344 z m 132.95889,-38.59292 c 4.4469,-0.9757 13.1311,-3.87358 19.2982,-6.43974 10.3171,-4.29299 11.3706,-5.25151 13.1874,-11.9983 2.7509,-10.21639 12.1229,-19.24693 19.8894,-19.16476 3.3105,0.035 8.0404,1.21915 10.5109,2.63144 7.0251,4.01588 10.1758,3.1993 14.4709,-3.75033 7.1294,-11.53563 10.1737,-13.31872 22.7396,-13.31872 12.5832,0 12.2272,0.33973 16.4709,-15.72148 1.1097,-4.1999 2.9864,-10.84482 4.1704,-14.76651 1.1841,-3.92166 1.6358,-7.64743 1.0038,-8.27941 -0.632,-0.63202 -6.0152,1.80686 -11.9625,5.41965 -17.7083,10.75725 -57.4764,29.10883 -73.8442,34.07649 -16.7963,5.09771 -51.50362,11.71782 -86.24359,16.45017 -38.38599,5.22902 -72.43414,2.06355 -127.56863,-11.86014 -19.27005,-4.86647 -38.62117,-9.70768 -43.00251,-10.75824 -4.38132,-1.05062 -13.27519,-5.40568 -19.76416,-9.67797 -14.4343,-9.50347 -17.48233,-11.04383 -24.45989,-12.36115 -8.71002,-1.6444 -10.53534,0.74122 -11.68386,15.27019 -1.84782,23.37522 2.89827,30.40403 14.07693,20.84742 8.57162,-7.32787 22.02981,-7.12772 36.41886,0.54157 12.42188,6.62077 14.75352,8.99273 21.27869,21.64644 3.06239,5.93864 6.2907,9.79907 8.46507,10.12255 1.93315,0.2876 8.03227,-1.88775 13.55363,-4.83412 5.9086,-3.15299 11.53819,-4.9649 13.68321,-4.40395 2.00443,0.52414 5.76936,-0.4393 8.36652,-2.14103 4.43833,-2.90811 7.60776,-2.9283 52.73809,-0.33596 26.40879,1.51693 50.66379,2.78044 53.90001,2.80783 9.56298,0.0807 18.46468,3.90393 26.64309,11.44251 6.3153,5.82125 13.09939,9.53255 18.68004,10.21902 0.4941,0.0606 4.5367,-0.68777 8.9837,-1.66347 z M 829.36075,292.23368 c 1.35328,-1.6306 1.80228,-4.89046 1.13386,-8.2324 -1.51197,-7.55997 1.37432,-12.10843 10.23705,-16.13244 13.64866,-6.19698 33.03148,-4.10567 60.59696,6.53815 8.45585,3.26504 19.65261,6.50396 24.88173,7.19765 11.87811,1.57567 33.86419,-2.20115 38.87796,-6.67856 11.71451,-10.46137 22.10406,-7.49842 32.24532,9.19591 3.61217,5.94619 7.68287,10.81126 9.04617,10.81126 1.3633,0 4.8686,-3.43628 7.7895,-7.63615 11.403,-16.39596 25.7171,-26.50193 37.5374,-26.50193 2.7826,0 9.4517,2.82986 14.8202,6.28859 11.4397,7.37018 17.7006,7.89119 24.5041,2.03913 4.0638,-3.49559 5.0169,-5.91762 5.3722,-13.65271 0.5583,-12.15175 3.8243,-15.61551 17.2065,-18.24831 7.8059,-1.53571 11.4146,-3.23626 13.4456,-6.33598 3.8522,-5.87925 6.6252,-32.7843 4.2774,-41.50304 -4.2937,-15.94556 -18.7722,-27.9124 -42.6966,-35.28965 -8.7013,-2.68314 -29.1614,-9.23068 -45.4669,-14.55011 -16.3054,-5.31943 -38.5401,-11.38379 -49.41034,-13.47638 -10.87028,-2.0926 -23.65091,-4.65839 -28.4014,-5.70177 -9.18875,-2.0182 -44.36183,-0.85353 -63.2324,2.0938 -5.92922,0.92606 -18.05723,2.56785 -26.95112,3.64844 -8.89387,1.08056 -27.08587,3.96255 -40.42668,6.40442 -21.89111,4.00688 -26.88366,5.68535 -51.2071,17.21556 -40.43832,19.16924 -46.9529,25.98275 -51.22179,53.57229 -2.8674,18.53182 -0.99309,23.35763 9.07201,23.35763 14.29205,0 18.56734,5.78292 20.32304,27.48974 1.39736,17.27657 3.20551,21.02228 10.14792,21.02228 5.95407,0 8.98371,-4.06682 8.98371,-12.05928 0,-7.32323 4.62874,-13.0951 10.50162,-13.0951 7.3851,0 20.41071,7.3301 24.81865,13.96659 2.14847,3.23469 4.42173,9.29869 5.05171,13.47556 2.81895,18.69031 3.64775,20.19413 8.14372,14.77681 z"
             id="path4163"
             inkscape:connector-curvature="0" />
          <path
             style="fill:#502d16"
             d="m 897.95727,408.11714 c -66.61099,-5.52809 -122.27531,-23.36312 -143.9905,-46.13502 -6.61526,-6.93717 -12.32598,-16.48503 -12.32598,-20.60802 0,-1.23728 -2.38823,-4.71372 -5.30717,-7.72536 -5.7363,-5.91854 -6.48546,-10.02728 -5.83364,-31.99407 0.32032,-10.7948 0.95935,-12.77114 5.75059,-17.78472 5.34453,-5.59254 5.39022,-5.81411 5.39022,-26.13765 v -20.49732 l -5.45316,-4.98071 c -7.28871,-6.65722 -8.25258,-14.26321 -4.46986,-35.272 3.02782,-16.8162 3.34033,-17.48833 12.96473,-27.88382 8.69502,-9.39166 13.19127,-12.26613 37.99403,-24.28969 31.19816,-15.12384 35.40201,-16.33712 84.01373,-24.24736 42.92935,-6.98556 43.40608,-7.03932 73.0972,-8.24086 17.99899,-0.72837 25.47563,-0.40906 27.37742,1.1693 1.43895,1.19421 3.74501,1.73816 5.12457,1.2088 4.51814,-1.73379 48.24195,7.85068 72.10225,15.80514 12.8467,4.28278 33.06,10.77774 44.9185,14.4332 25.7509,7.93788 29.4427,9.72942 39.8852,19.35497 13.3174,12.27556 15.8746,18.87757 15.4568,39.90587 -0.2139,10.76629 -1.474,21.11844 -3.1443,25.82947 -3.6821,10.38586 -3.7758,35.96108 -0.1492,40.75572 3.4147,4.51471 3.4359,12.77715 0.057,22.3535 -1.8123,5.13652 -2.6951,14.58913 -2.6951,28.85679 0,11.6699 -0.7862,23.28579 -1.7471,25.81306 -2.7247,7.16658 -15.7074,20.22244 -26.7991,26.95011 -22.3534,13.55843 -61.9377,25.29446 -103.5143,30.69012 -26.25493,3.40724 -83.02175,4.80187 -108.70285,2.67055 z m 106.83513,-8.07405 c 54.6486,-7.23708 94.2535,-20.68907 115.2023,-39.12895 10.6872,-9.40723 13.3357,-15.03801 13.3357,-28.35234 0,-9.90488 -0.3289,-10.90607 -3.1443,-9.572 -1.7294,0.81945 -7.187,1.63767 -12.128,1.81825 -4.9411,0.18063 -9.9555,0.4052 -11.1433,0.49906 -1.1878,0.0939 -4.6953,3.85624 -7.7945,8.36074 -7.0686,10.27377 -12.2585,12.47617 -20.8959,8.86723 -8.2841,-3.46134 -15.715,-3.41666 -18.6436,0.11212 -1.276,1.53748 -3.2728,6.5908 -4.4374,11.22963 -1.8478,7.36051 -3.1245,8.93922 -10.028,12.40065 -11.7067,5.86974 -29.7998,11.30591 -37.6292,11.30591 -9.85714,0 -15.07159,-2.4536 -26.68944,-12.55852 l -10.26869,-8.93141 -37.63296,-2.10652 c -20.69809,-1.15859 -47.54193,-1.90536 -59.65292,-1.65947 -19.25331,0.39087 -21.88587,0.0975 -20.95257,-2.33457 1.61491,-4.20835 13.53507,-5.10272 37.58232,-2.81981 11.85849,1.12582 34.09315,2.41928 49.41037,2.87438 31.02155,0.92175 36.51826,2.4319 49.95314,13.72423 4.25133,3.57336 10.44928,7.0072 13.77325,7.63079 6.4559,1.21112 19.8164,-2.01734 33.6234,-8.12484 9.6239,-4.25713 11.4124,-6.1703 13.0864,-13.99875 1.5264,-7.13826 10.6001,-16.6108 15.9231,-16.62292 2.1475,-0.005 7.8332,1.39932 12.6349,3.1205 l 8.7304,3.1294 3.8468,-5.06398 c 10.9249,-14.38184 12.9015,-15.66941 23.5227,-15.32233 10.8273,0.35382 17.1572,-3.16422 17.1572,-9.53571 0,-1.84793 1.6171,-7.96074 3.5935,-13.58398 4.2445,-12.07643 4.6806,-20.23078 1.082,-20.23078 -1.3813,0 -7.6664,3.13169 -13.9668,6.95935 -25.5814,15.54126 -56.7331,29.23207 -81.4441,35.79377 -15.1525,4.02355 -56.72622,11.24899 -85.20967,14.80924 -31.14891,3.89342 -73.15256,-0.85086 -120.26336,-13.5837 -16.36893,-4.42412 -31.00564,-8.04834 -32.526,-8.05388 -6.79513,-0.0247 -16.90587,-4.31922 -29.4541,-12.51078 -20.25838,-13.2248 -34.23724,-15.81067 -36.08115,-6.67439 -2.08755,10.34346 -2.68327,28.27855 -1.0794,32.49704 0.98485,2.59037 3.7937,5.62241 6.24188,6.73787 3.90964,1.78134 5.23333,1.34143 10.87904,-3.61557 5.28606,-4.64122 7.93266,-5.63669 14.8998,-5.60423 15.72762,0.0733 35.80477,13.39874 40.04891,26.58102 1.17212,3.64058 2.93329,7.6299 3.91371,8.86517 2.79853,3.52595 10.5176,2.60685 19.04421,-2.26759 8.04061,-4.59656 14.63971,-5.81806 14.63971,-2.70979 0,0.96823 -4.24479,4.19474 -9.4329,7.1701 -6.70843,3.84725 -11.81743,5.41456 -17.68891,5.42656 -9.33947,0.0192 -12.56126,-2.56747 -15.80666,-12.68985 -2.58201,-8.05329 -11.25852,-16.54478 -21.7542,-21.29024 -11.65752,-5.2708 -16.43421,-4.7386 -25.43358,2.83366 -9.02746,7.59592 -9.31603,10.95734 -1.74981,20.38285 19.12094,23.81959 73.79062,42.20116 143.97155,48.40744 25.37388,2.24387 80.40807,0.90968 106.83513,-2.59006 z m -34.57806,-75.58263 c 33.64186,-4.66939 66.28626,-11.16176 81.42656,-16.19424 18.2749,-6.0744 51.7787,-21.89681 68.7048,-32.44639 l 13.1408,-8.19032 -0.5272,-11.95168 -0.5273,-11.95171 -6.2886,0.60227 c -12.0297,1.15207 -15.1742,3.85114 -16.1882,13.89463 -1.1348,11.2414 -4.9573,17.28367 -13.4981,21.33654 -8.4566,4.01292 -17.2064,2.56681 -27.2048,-4.49623 -10.1931,-7.20055 -17.8047,-7.0255 -27.8652,0.64091 -4.2767,3.25895 -10.8223,10.52397 -14.5457,16.14448 -10.2731,15.50737 -19.0863,15.51731 -28.35402,0.0321 -5.70068,-9.52518 -10.82307,-14.91794 -14.15054,-14.89743 -1.5571,0.01 -6.46951,2.91395 -10.91645,6.45411 -7.566,6.02327 -8.66022,6.36082 -17.03646,5.25566 -4.92312,-0.64958 -9.34662,-1.57658 -9.83004,-2.05998 -1.58767,-1.5877 3.9588,-3.93647 12.2217,-5.17557 4.46504,-0.66956 10.98721,-3.16691 14.49373,-5.54963 3.50652,-2.38274 8.89234,-4.33226 11.96853,-4.33226 6.16637,0 9.12541,2.63225 17.68225,15.72947 7.9429,12.15756 11.8008,12.09942 19.731,-0.29742 9.8213,-15.35323 27.4703,-26.29843 38.1028,-23.62986 2.4709,0.62016 7.8047,3.52688 11.853,6.45943 7.7137,5.58779 16.6412,6.93394 23.0914,3.48187 4.9801,-2.66526 8.8842,-11.23155 8.8842,-19.49333 0,-8.03636 3.2362,-12.29847 10.4569,-13.77214 15.5651,-3.17664 18.5827,-4.67303 20.9038,-10.36609 3.6632,-8.98469 5.1686,-33.86922 2.573,-42.53234 -2.8916,-9.65152 -13.3382,-21.39131 -24.3114,-27.32108 -4.7982,-2.59284 -16.0007,-6.86001 -24.8946,-9.48255 -8.8939,-2.62255 -26.7246,-8.34062 -39.6238,-12.70682 -12.8992,-4.3662 -34.3253,-10.54819 -47.6136,-13.73774 -22.53465,-5.40891 -26.18759,-5.7869 -54.28182,-5.61666 -16.56672,0.10037 -35.16298,1.05392 -41.32504,2.11895 -6.16208,1.06504 -18.48056,2.82041 -27.37445,3.90082 -40.66184,4.93953 -61.0249,9.94626 -84.01435,20.65685 -12.09636,5.63559 -24.65292,11.47068 -27.90347,12.96687 -8.48248,3.90439 -23.84962,18.24725 -26.59807,24.82521 -1.28996,3.08731 -3.34458,12.52403 -4.56581,20.97051 -1.99479,13.79665 -1.90858,15.83315 0.84834,20.04073 2.44323,3.72886 4.50486,4.68353 10.11412,4.68353 4.83985,0 8.60948,1.34543 12.04189,4.29786 4.57441,3.93474 5.09465,5.68489 6.15748,20.7146 1.38314,19.55961 4.07398,23.98264 14.07618,23.13753 6.76521,-0.57161 7.13984,-1.17761 10.32793,-16.70702 1.77636,-8.65267 6.00301,-9.93228 17.85568,-5.40569 9.82619,3.75267 14.69564,10.4997 17.15351,23.76758 2.56908,13.86827 4.48532,18.47131 7.68958,18.47131 3.98443,0 6.91002,-6.88185 5.80924,-13.6651 -1.90445,-11.73577 13.78872,-18.7862 35.71697,-16.04644 10.04474,1.25499 31.87354,8.14971 40.27429,12.72079 l 4.54479,2.47294 -6.50844,0.0719 c -3.57961,0.0395 -12.87775,-2.01765 -20.6625,-4.57158 -17.41521,-5.71343 -35.66596,-6.55152 -42.67402,-1.95965 -3.94358,2.584 -4.7198,4.42892 -4.7198,11.21818 0,6.23151 -1.028,9.15358 -4.41016,12.53577 -5.33131,5.33129 -8.0855,5.50641 -13.95761,0.88742 -3.44922,-2.71317 -4.7509,-5.8406 -5.66381,-13.60813 -1.63486,-13.91009 -5.25451,-21.65433 -11.67247,-24.97317 -9.58985,-4.95913 -12.43076,-3.86146 -13.80997,5.33579 -1.79542,11.97267 -5.86734,16.10575 -15.86745,16.10575 -6.51208,0 -9.20116,-0.99793 -13.04386,-4.84061 -4.29601,-4.29601 -4.97163,-6.6571 -6.00519,-20.98613 -1.20143,-16.65639 -3.37262,-21.7869 -9.22001,-21.7869 -3.11719,0 -3.37348,1.67796 -3.37348,22.08662 v 22.0866 l 7.63615,2.07732 c 4.19988,1.14253 14.10443,6.19054 22.01009,11.21775 7.90564,5.02726 15.99097,9.4855 17.96741,9.90723 9.25327,1.97447 49.93302,12.01179 61.98755,15.29482 31.79691,8.65981 77.62051,11.1407 113.58212,6.14933 z"
             id="path4157"
             inkscape:connector-curvature="0" />
          <path
             style="fill:#ffffff"
             d="m 905.43138,412.8726 c -8.6468,-0.32935 -15.7217,-1.17377 -15.72196,-1.87644 -2.7e-4,-0.70269 21.42559,-1.2776 47.61302,-1.2776 26.18743,0 47.61383,0.48162 47.61413,1.07028 7e-4,1.25465 -41.71368,3.5724 -54.79999,3.0448 -4.94104,-0.19931 -16.05837,-0.63166 -24.7052,-0.96104 z m 85.79439,-35.24617 c -2.9646,-1.39206 -8.6243,-6.00696 -12.57718,-10.25532 -5.70882,-6.13565 -6.19476,-7.10917 -2.36264,-4.73357 2.65335,1.6449 6.79932,4.96576 9.21332,7.37972 7.213,7.21298 16.67673,9.11743 29.20863,5.87781 5.8608,-1.51506 15.2891,-4.81613 20.9517,-7.33566 9.5558,-4.25176 10.442,-5.16185 12.3307,-12.66236 2.3037,-9.14888 9.2481,-17.14544 14.901,-17.15866 2.0887,-0.005 7.7171,1.396 12.5075,3.11308 l 8.7098,3.12197 5.1481,-6.2574 c 12.028,-14.61982 11.5814,-14.34269 23.115,-14.34269 8.7703,0 11.4561,-0.73149 14.4381,-3.93228 2.0149,-2.16275 3.6635,-5.77123 3.6635,-8.01883 0,-2.24758 1.6582,-8.29359 3.685,-13.43555 4.1765,-10.59579 4.0688,-20.12374 -0.2367,-20.93791 -1.5621,-0.29538 -8.4346,2.87256 -15.2723,7.03987 -16.2369,9.89578 -48.4503,25.09538 -65.436,30.87525 -7.4115,2.522 -21.7021,6.25729 -31.7568,8.30066 -78.45552,15.94392 -122.2796,15.56955 -185.64889,-1.58607 -14.32901,-3.87919 -30.90395,-8.00695 -36.83317,-9.17279 -12.15582,-2.3901 -17.10828,-4.65617 -31.35646,-14.34772 -15.84704,-10.77904 -30.11539,-13.15318 -33.99662,-5.65674 -0.86071,1.66246 -2.11651,9.55873 -2.79065,17.54731 -1.38002,16.35324 0.38491,22.53619 7.33719,25.70386 5.56711,2.53655 4.43771,2.84844 12.29451,-3.39536 5.34788,-4.24996 8.55627,-5.39022 15.1666,-5.39022 15.58802,0 35.49912,13.74785 38.7433,26.75077 1.59804,6.40507 6.05614,10.9808 10.69849,10.9808 2.12332,0 8.10368,-2.11443 13.28968,-4.69872 5.18599,-2.58429 9.83421,-4.29359 10.32937,-3.79843 2.02133,2.02133 -12.89679,9.12368 -20.74855,9.87814 -9.749,0.93675 -13.96823,-1.99141 -15.75704,-10.93542 -1.51825,-7.59116 -14.74325,-19.99064 -25.07712,-23.51172 -12.4088,-4.22812 -18.12972,-3.70076 -23.67793,2.18263 -2.61995,2.77824 -6.17847,5.58272 -7.90783,6.2322 -1.72937,0.64949 -3.1443,1.99673 -3.1443,2.99388 0,0.99716 -3.27805,-1.74327 -7.28455,-6.08981 l -7.28455,-7.90281 0.41339,-17.29495 c 0.40136,-16.79127 0.58302,-17.47482 6.23769,-23.47052 5.61811,-5.95692 6.00447,-6.08159 10.91382,-3.52101 2.79925,1.45998 6.3842,2.65951 7.96656,2.66559 1.58237,0.005 9.76035,4.46996 18.1733,9.91972 12.68813,8.21915 18.07723,10.5156 31.60638,13.46839 8.97055,1.95785 26.66565,6.38641 39.32242,9.84126 47.43318,12.94753 87.59602,14.95947 139.61183,6.99373 39.29373,-6.01745 66.32383,-12.80636 88.53643,-22.23685 21.543,-9.14623 44.5297,-21.45614 55.0242,-29.46673 l 7.8183,-5.96786 3.9107,4.39049 c 4.6728,5.24608 4.9429,10.44762 0.9575,18.43653 -1.6242,3.25586 -3.3408,11.33808 -3.8146,17.96049 l -0.8616,12.04075 -8.8191,2.26028 c -4.8506,1.24318 -10.8838,1.74212 -13.4072,1.10878 -6.7744,-1.70027 -10.832,0.23334 -15.1496,7.2194 -7.5915,12.2832 -12.8514,14.16439 -25.2974,9.04741 -3.9263,-1.61424 -7.4777,-1.95229 -10.0902,-0.96047 -4.7432,1.80082 -11.2246,11.69883 -11.2342,17.15622 -0.01,5.05646 -2.355,6.7896 -18.1405,13.40077 -15.6198,6.54184 -32.09853,8.41917 -40.26033,4.58667 z m -239.0796,-12.37722 -5.27719,-5.83941 5.83941,5.2772 c 3.21167,2.90245 5.83942,5.53018 5.83942,5.83941 0,1.38809 -1.48255,0.16602 -6.40164,-5.2772 z m 363.95313,5.2772 c 0,-0.30923 2.6278,-2.93696 5.8394,-5.83941 l 5.8394,-5.2772 -5.2771,5.83941 c -4.9191,5.44314 -6.4017,6.66529 -6.4017,5.2772 z m -262.32423,-17.4052 c 1.48234,-0.95795 4.71645,-1.74172 7.18697,-1.74172 3.55565,0 3.93014,0.36302 1.79674,1.74172 -1.48231,0.95795 -4.71645,1.74171 -7.18697,1.74171 -3.55563,0 -3.93012,-0.36301 -1.79674,-1.74171 z m 15.8338,-1.22737 c 1.29703,-0.51904 2.84671,-0.45522 3.44375,0.14182 0.59705,0.59705 -0.46416,1.0217 -2.35821,0.9437 -2.09311,-0.0862 -2.51886,-0.51198 -1.08554,-1.08552 z m -43.97445,-47.40441 c -4.26612,-1.58611 -5.10433,-3.6367 -6.91866,-16.92561 -2.00034,-14.65144 -7.17846,-21.97185 -18.13542,-25.63849 -7.49099,-2.50677 -9.37218,-0.92975 -11.31851,9.48842 -1.60413,8.58651 -6.74147,15.22803 -11.77919,15.22803 -5.2245,0 -13.77713,-4.26072 -15.70757,-7.82512 -1.1479,-2.11953 -2.60853,-10.96223 -3.24583,-19.65045 -1.20458,-16.42222 -3.38628,-21.07564 -10.01708,-21.36573 -1.89196,-0.0829 -4.65272,0.35305 -6.13503,0.96852 -3.49297,1.45033 -13.79642,-7.59471 -15.25038,-13.38776 -1.0973,-4.372 0.52797,-16.06905 4.58743,-33.01562 1.71999,-7.18026 4.29553,-11.08154 13.13893,-19.90212 6.04977,-6.03415 14.63751,-12.52616 19.08387,-14.42668 4.44638,-1.90055 15.76585,-7.16929 25.15438,-11.70834 9.38855,-4.53904 19.89996,-9.17447 23.35869,-10.30091 9.28144,-3.02279 90.28732,-16.41651 92.18701,-15.24245 3.17007,1.95922 -3.37587,4.0953 -12.63296,4.12245 -11.60573,0.034 -69.02972,9.71752 -80.28384,13.53839 -17.47892,5.93426 -56.31891,26.28343 -63.69564,33.37167 -10.70986,10.29099 -12.95111,14.42601 -15.73705,29.03426 -4.94639,25.9367 -2.19365,33.68439 11.96797,33.68439 11.14211,0 16.07691,5.88354 16.13187,19.2333 0.0561,13.61535 2.58474,24.12883 6.49038,26.98466 8.82178,6.45066 20.41788,0.31633 20.41788,-10.80105 0,-12.15728 5.8838,-14.75026 19.02984,-8.38637 8.65849,4.19151 12.74833,11.12487 14.43897,24.47782 1.24174,9.80748 4.87578,16.76781 8.75459,16.76781 4.26656,0 8.33204,-8.04643 7.73454,-15.30826 -0.45556,-5.53679 0.30582,-7.30047 4.5314,-10.49649 7.56689,-5.72322 31.60353,-5.45145 48.82326,0.55201 6.91745,2.41166 13.38574,5.12265 14.37393,6.0244 2.4583,2.24317 -9.54556,-0.33819 -15.3486,-3.30064 -6.94446,-3.54514 -26.73767,-6.64454 -33.87821,-5.30496 -3.49138,0.655 -8.59939,2.35514 -11.35111,3.77812 -4.4151,2.28313 -5.00314,3.59731 -5.00314,11.18136 0,12.11401 -5.28826,17.7037 -13.76672,14.55144 z m 178.76208,-0.32942 c -1.5336,-1.23527 -5.43913,-6.2886 -8.67883,-11.22963 -10.1009,-15.40538 -14.1249,-16.73957 -24.09247,-7.98793 -5.57337,4.89348 -7.28226,5.42263 -15.78401,4.88735 l -9.53394,-0.60026 9.59582,-1.54697 c 5.76289,-0.92906 11.66437,-3.28753 14.77446,-5.90452 5.91355,-4.97592 15.00844,-5.93801 18.94264,-2.00382 1.468,1.46806 5.2597,6.57854 8.426,11.35662 10.14863,15.315 13.63293,15.32458 23.76123,0.0657 7.412,-11.16654 19.4565,-20.4789 28.3124,-21.89006 6.4493,-1.02769 11.8154,0.89983 20.8775,7.49926 15.0585,10.96606 32.5248,0.91282 32.5248,-18.72063 0,-7.93153 4.5974,-12.76829 12.1364,-12.76829 2.2823,0 6.9827,-1.18369 10.4453,-2.63045 8.0725,-3.37292 10.8399,-10.00256 12.4019,-29.71089 1.5,-18.92541 -1.3412,-28.09953 -12.1495,-39.23039 -9.3214,-9.59955 -19.0194,-14.67647 -39.9159,-20.89605 -8.8868,-2.64504 -26.8207,-8.42628 -39.8529,-12.84723 -13.0324,-4.42094 -32.0329,-9.96729 -42.2235,-12.32523 -10.19063,-2.35793 -16.91123,-4.34258 -14.93483,-4.41033 5.9303,-0.20315 38.40573,8.18056 58.46993,15.09454 10.3345,3.56119 27.261,8.947 37.6144,11.9685 10.3535,3.02147 21.9555,7.0909 25.7822,9.04314 10.1926,5.19987 21.5297,16.34733 26.5005,26.05714 3.8006,7.42396 4.2967,10.56069 3.8906,24.60057 -0.2559,8.85044 -1.1491,16.97429 -1.9847,18.05303 -0.8357,1.07874 -2.5624,5.59975 -3.8372,10.04668 -2.3158,8.07892 -2.3246,8.08565 -11.1052,8.46699 -4.8331,0.20986 -10.9824,1.43205 -13.6649,2.71591 -4.2254,2.02219 -5.0266,3.71944 -5.9931,12.69616 -2.3342,21.67952 -20.5951,28.55903 -39.2582,14.78984 -12.6119,-9.30475 -29.6536,-2.7666 -42.2489,16.20902 -8.4475,12.72677 -13.5576,15.6953 -19.198,11.15233 z M 913.06753,119.54484 c 2.47052,-0.79118 12.17293,-1.41794 21.5609,-1.39273 14.17245,0.0381 15.69698,0.28992 8.98371,1.48444 -10.86569,1.93339 -36.62648,1.85606 -30.54461,-0.0917 z"
             id="path4153"
             inkscape:connector-curvature="0" />
          <path
             inkscape:connector-curvature="0"
             id="path4174"
             d="m 995.67035,367.74476 c -2.35714,-1.06247 -7.72162,-4.65766 -11.92104,-7.98931 -13.59358,-10.78457 -14.82688,-11.05899 -60.94079,-13.55981 -55.18544,-2.99278 -69.23826,-3.18371 -73.24672,-0.99517 -1.78827,0.97636 -5.64541,2.06451 -8.57142,2.41811 -2.92602,0.35359 -9.65425,2.62015 -14.95164,5.03678 -5.29738,2.41664 -10.74812,4.17887 -12.11276,3.91607 -1.36463,-0.26281 -4.85762,-4.56515 -7.76219,-9.56076 -7.10198,-12.21477 -11.63182,-16.64457 -22.48329,-21.98673 -6.52555,-3.21251 -11.78761,-4.67673 -18.29664,-5.09119 -8.27033,-0.52662 -9.81653,-0.15919 -16.30575,3.87473 -8.18693,5.08928 -10.13155,5.40419 -12.8757,2.08509 -2.44263,-2.95441 -2.39399,-28.52917 0.063,-33.12009 3.39688,-6.34713 11.67793,-3.85135 36.85434,11.10732 9.03834,5.37017 14.83918,7.25967 47.14285,15.35577 77.46289,19.41412 103.92329,21.17256 166.12203,11.03972 55.61307,-9.05997 86.47287,-19.5788 130.38887,-44.44426 7.7046,-4.3624 14.3574,-7.58266 14.7839,-7.15613 0.9326,0.9326 -7.8075,32.48855 -9.6221,34.74035 -0.7002,0.8689 -6.0327,1.93979 -11.85,2.37975 -12.2286,0.92485 -15.633,2.77089 -21.5578,11.68969 -5.1285,7.72012 -7.4797,8.71511 -14.0786,5.95793 -14.4629,-6.04299 -23.8582,-1.69941 -31.1608,14.40598 -4.491,9.90481 -7.2614,11.897 -24.0463,17.29208 -13.1519,4.22731 -18.628,4.83229 -23.57145,2.60408 z"
             style="fill:#784421;fill-opacity:1;fill-rule:evenodd;stroke:none;stroke-width:1.01300001;stroke-miterlimit:0;stroke-dasharray:none;stroke-dashoffset:0;stroke-opacity:0.50196078" />
        </g>
        <g
           transform="matrix(4.1560591,0,0,2.0346918,-651.12378,8.706089)"
           id="g4572">
          <path
             inkscape:connector-curvature="0"
             id="path4180-2-3"
             d="m 159.8726,71.914892 c -1.32274,-0.183268 -7.56158,23.182655 -8.27735,31.000008 -0.5964,6.51403 1.09056,12.41595 3.9375,13.77148 3.63335,1.72995 4.20477,2.25099 3.47656,3.77734 0.66931,-0.0127 1.33866,-0.0199 2.00782,-0.043 0.0275,-3e-4 0.0583,3.7e-4 0.0859,0 -0.45722,-1.54816 0.34497,-2.61915 4.25782,-5.95703 1.83527,-1.56558 2.33422,-2.75283 2.66601,-6.35156 0.42696,-4.63096 0.0497,-6.32669 -4.64062,-20.908203 -1.51788,-4.718904 -2.81451,-10.07288 -2.88086,-11.89844 -0.0663,-1.82556 -0.35049,-3.351505 -0.63281,-3.390625 z m 4.92187,48.412108 c -0.16882,-0.0209 -0.36287,0.0529 -0.57617,0.16993 0.2969,0.006 0.60787,0.007 0.92187,0.004 -0.1103,-0.0963 -0.22383,-0.15872 -0.3457,-0.17383 z"
             style="fill:#eea300;fill-opacity:1" />
          <path
             id="path4180-2-3-2"
             d="m 159.88341,104.05142 c -0.64197,-0.0556 -3.66991,7.03689 -4.0173,9.40978 -0.28946,1.97727 0.52929,3.76874 1.91101,4.1802 1.7634,0.52511 2.04073,0.68327 1.68731,1.14658 0.32484,-0.004 0.6497,-0.006 0.97446,-0.013 0.0133,-9e-5 0.0283,1.2e-4 0.0417,0 -0.2219,-0.46992 0.16742,-0.79502 2.06647,-1.8082 0.89073,-0.47522 1.13289,-0.83559 1.29392,-1.92796 0.20722,-1.40568 0.0241,-1.92041 -2.25227,-6.34649 -0.73668,-1.43237 -1.36598,-3.05752 -1.39818,-3.61165 -0.0322,-0.55414 -0.17011,-1.01732 -0.30713,-1.0292 z m 2.38877,14.69506 c -0.0819,-0.006 -0.17612,0.016 -0.27964,0.0516 0.14409,0.001 0.29502,0.002 0.44742,0.001 -0.0535,-0.0293 -0.10864,-0.0482 -0.16778,-0.0528 z"
             style="fill:#ff0000"
             inkscape:connector-curvature="0" />
          <path
             style="fill:#ffff00"
             d="m 150.21975,183.38748 c -0.11025,-1.60564 -0.12133,-4.26667 -0.0697,-16.76666 0.0134,-3.25097 -0.20625,-7.17789 -0.48814,-8.72651 -0.28189,-1.5486 -0.2261,-4.05498 0.124,-5.56972 0.38564,-1.66865 0.17478,-5.74725 -0.535,-10.34837 -1.55231,-10.06262 -1.0846,-16.30898 1.36603,-18.24413 1.00327,-0.79222 3.06564,-1.27711 4.58307,-1.07752 1.61663,0.21303 3.17422,-0.38936 3.76199,-1.45402 1.14449,-2.07303 0.88034,-2.43639 -3.17473,-4.36714 -2.84695,-1.35553 -4.53495,-7.25795 -3.93854,-13.77198 0.71577,-7.817303 6.95507,-31.18362 8.2778,-31.000352 0.28233,0.03912 0.56761,1.564749 0.63397,3.390309 0.0663,1.82556 1.36253,7.180087 2.88041,11.89899 4.69028,14.581503 5.06633,16.276113 4.63937,20.907063 -0.33179,3.59874 -0.83072,4.78773 -2.66599,6.35331 -4.19745,3.58065 -4.8334,4.54452 -4.15426,6.29651 0.47364,1.22187 1.02999,1.27757 2.30316,0.23059 1.49017,-1.22539 1.8226,-0.94464 2.96051,2.50032 1.0424,3.15588 1.12933,4.88781 0.46532,9.27254 -0.44909,2.9655 -1.50462,7.29339 -2.34565,9.61756 -1.93584,5.34962 -2.93043,22.21395 -1.82654,30.97081 0.40595,3.22025 0.68845,6.39329 0.62779,7.05119 -0.39181,4.24976 -13.1428,6.94452 -13.42482,2.83715 z m 13.20654,-71.36067 c 1.09269,-1.6719 0.0594,-7.65948 -2.7756,-16.084123 -2,-5.94323 -2.05152,-5.99788 -3.09107,-3.27851 -0.58145,1.521 -1.39381,5.989311 -1.80528,9.929573 -0.59807,5.72739 -0.52093,7.58174 0.38467,9.24646 1.25545,2.30783 5.82447,2.42483 7.28728,0.1866 z"
             id="path4176-3-0"
             inkscape:connector-curvature="0" />
          <path
             inkscape:connector-curvature="0"
             id="path4178-2-1"
             d="m 164.86854,90.032668 c -0.003,0.1277 0.001,0.2551 -3.4e-4,0.38284 0.058,0.0481 0.11237,0.10117 0.16836,0.15174 -0.0584,-0.1841 -0.1077,-0.34519 -0.16799,-0.53457 z m -6.73279,1.23363 c -0.0132,0.007 -0.0274,0.0115 -0.0405,0.0181 0.0101,0.055 0.0228,0.10909 0.0333,0.16396 0.004,-0.009 0.006,-0.0138 0.01,-0.0224 -0.001,-0.0532 -0.002,-0.10642 -0.003,-0.15972 z m 5.92749,18.799892 c -0.003,0.0414 -3.6e-4,0.0901 -0.004,0.13024 0.007,-0.0202 0.009,-0.026 0.0158,-0.0454 -0.003,-0.0286 -0.008,-0.0563 -0.0115,-0.0849 z m -4.24839,6.94289 c -0.0235,0.0295 -0.0472,0.0509 -0.071,0.0758 0.0845,0.0113 0.16802,0.0282 0.25307,0.0326 -0.0388,-0.0278 -0.0762,-0.0557 -0.1359,-0.083 -0.0193,-0.0136 -0.03,-0.0139 -0.0461,-0.0254 z m 1.71407,2.07103 c -0.0878,0.0111 -0.1178,0.008 -0.33686,0.0556 -0.0279,-0.0218 -0.0613,-0.037 -0.0918,-0.0556 -0.39854,0.13712 -0.86771,0.20326 -0.90099,0.19859 -0.1343,0.0127 -0.26882,0.0222 -0.40302,0.0369 -0.024,0.36829 -0.20383,0.78514 -0.50017,1.32189 -0.50642,0.91732 -2.64292,1.70685 -4.74768,1.75362 -6.58688,0.14635 -8.20574,5.84316 -5.81832,20.47807 0.59352,3.63827 0.9677,7.83086 0.83076,9.31606 -0.13693,1.48522 -0.16477,6.8509 -0.0616,11.9249 0.10319,5.07398 0.18098,11.29536 0.17264,13.82418 -0.008,2.52882 0.21374,5.36863 0.49287,6.31086 0.69101,2.33244 7.13755,3.08872 10.1659,1.19211 3.59786,-2.25325 4.50233,-5.31828 3.63892,-12.3258 -1.00491,-8.15608 -0.16133,-22.73864 1.84582,-31.90839 2.29558,-10.48749 2.50485,-13.91115 1.1034,-18.15392 -1.08215,-3.27623 -1.41881,-3.5466 -2.903,-2.32612 -1.27317,1.04698 -1.82932,0.99316 -2.30296,-0.22874 -0.19723,-0.50881 -0.2635,-0.95504 -0.18387,-1.4143 z"
             style="fill:#d45500;fill-opacity:1" />
          <path
             style="fill:#ff6600"
             d="m 162.12308,181.74242 c 0.0581,-0.57674 0.47918,-1.88401 0.93403,-2.90526 0.7127,-1.6002 0.80046,-1.55334 0.63492,0.33898 -0.10637,1.20759 -0.52596,2.51505 -0.93403,2.90526 -0.40807,0.39021 -0.69377,0.23767 -0.63492,-0.33898 z m -12.82215,-25.23326 c -0.34373,-3.35263 -0.0759,-4.16831 0.46897,-1.42849 0.26981,1.35659 0.32464,2.7204 0.12185,3.03068 -0.2028,0.31029 -0.46866,-0.41071 -0.59082,-1.60219 z m 14.68642,-14.34278 c 1.67867,-7.29175 2.50486,-13.79203 1.87376,-14.74239 -0.35862,-0.54005 -2.15927,-0.2417 -4.00145,0.66312 -2.12603,1.04416 -5.00788,1.28102 -7.89016,0.64845 -3.41408,-0.74929 -4.74841,-0.54564 -5.37764,0.82121 -0.64566,1.40246 -0.72443,1.09018 -0.34471,-1.36682 0.61363,-3.97064 3.23416,-6.11109 6.89263,-5.62989 1.61663,0.21303 3.17422,-0.38935 3.76199,-1.45401 1.14449,-2.07304 0.88034,-2.43639 -3.17473,-4.36714 -2.84694,-1.35553 -4.53494,-7.25796 -3.93854,-13.77199 0.71577,-7.817291 6.95507,-31.183618 8.2778,-31.000349 0.28233,0.03912 0.56762,1.564749 0.63397,3.390305 0.0663,1.825556 1.36253,7.180106 2.88041,11.898993 4.69029,14.581511 5.06634,16.276121 4.63937,20.907071 -0.33179,3.59873 -0.83071,4.78773 -2.66599,6.3533 -4.19745,3.58065 -4.83339,4.54452 -4.15426,6.29652 0.47364,1.22186 1.03,1.27757 2.30316,0.23059 1.48419,-1.22048 1.82046,-0.95113 2.90262,2.3251 1.34897,4.08392 1.16384,8.71157 -0.6107,15.26563 -1.43313,5.29309 -3.07998,8.19073 -2.00752,3.53224 z m 0.69759,-28.68066 c 3.33189,-2.91413 3.63941,-7.16029 1.1028,-15.227233 -1.1649,-3.704618 -2.86979,-9.323308 -3.78866,-12.485958 -0.91887,-3.16266 -2.03522,-6.121647 -2.48079,-6.575517 -1.93819,-1.97429 -6.93669,20.118665 -6.60661,29.200528 0.25594,7.04174 6.46938,9.72706 11.77326,5.08818 z"
             id="path4170-5-7"
             inkscape:connector-curvature="0" />
          <path
             inkscape:connector-curvature="0"
             id="path4170-5-7-4"
             d="m 159.78248,119.74531 c -0.003,5.2e-4 -0.006,10e-4 -0.01,0.002 -0.005,0.0187 -0.0162,0.0416 -0.0215,0.0606 0.0102,-0.0212 0.0194,-0.0434 0.0312,-0.0625 z m 5.55078,0.4668 c -0.33354,-0.0415 -0.72859,0.20638 -1.28515,0.66406 -0.94801,0.77959 -1.4973,0.94588 -1.91211,0.47656 -0.0177,0.008 -0.0353,0.0172 -0.0527,0.0254 -0.0139,0.0112 -0.025,0.0253 -0.041,0.0332 -0.0774,0.0382 -0.21193,0.0966 -0.30274,0.11328 -0.009,0.002 -0.0141,-0.002 -0.0273,0.002 -0.17102,0.14334 -0.36343,0.14846 -0.58594,0.1211 -0.0276,-0.002 -0.0566,-0.009 -0.084,-0.006 -0.008,10e-4 0.0238,0.008 0.0195,0.0156 -0.008,0.0135 -0.0283,0.0156 -0.043,0.0215 -0.14919,0.06 -0.0319,0.0142 -0.18164,0.082 -0.0964,0.0346 -0.19175,0.0243 -0.28906,0.0137 -0.016,0.009 -0.0367,0.0235 -0.043,0.0273 -0.3141,0.16909 -0.66809,0.11461 -1.00781,0.0918 -0.0334,-5.2e-4 -0.0686,-0.007 -0.10157,-0.002 -0.0148,0.002 -0.0235,0.017 -0.0371,0.0234 -0.0227,0.0107 -0.0461,0.0206 -0.0703,0.0273 -0.0461,0.0128 -0.0945,0.0164 -0.14062,0.0293 -0.0386,0.0108 -0.0736,0.0336 -0.11133,0.0469 -0.22518,0.0364 -0.45238,5e-5 -0.67969,0.002 -0.0324,6.6e-4 -0.0653,9.6e-4 -0.0977,0.002 -0.15003,0.003 -0.10837,0.0155 -0.24218,0.0527 -0.0889,0.0247 -0.12709,0.017 -0.0723,0.0234 -0.0734,0.0467 -0.15136,0.0574 -0.23047,0.0586 -0.005,7e-5 -0.009,0.004 -0.0137,0.004 -0.65438,0.24297 -1.42688,0.33625 -2.21484,0.23242 -3.65848,-0.4812 -6.27896,1.65827 -6.89258,5.62891 -0.37972,2.457 -0.30191,2.76964 0.34375,1.36718 0.62923,-1.36685 1.96483,-1.5696 5.37891,-0.82031 2.88228,0.63257 5.76263,0.39572 7.88867,-0.64844 1.84217,-0.90482 3.64333,-1.20411 4.00195,-0.66406 0.6311,0.95036 -0.19439,7.45044 -1.87305,14.74219 -1.07246,4.65849 0.57469,1.76184 2.00782,-3.53125 1.77454,-6.55406 1.95834,-11.18171 0.60937,-15.26563 -0.67635,-2.04764 -1.06129,-2.92103 -1.61719,-2.99023 z m -15.74609,33.0625 c -0.13411,0.0992 -0.13475,1.1825 0.0586,3.06836 0.12216,1.19148 0.38901,1.91185 0.5918,1.60156 0.20279,-0.31028 0.14676,-1.67466 -0.12305,-3.03125 -0.23839,-1.19867 -0.42303,-1.7158 -0.52734,-1.63867 z m 14.46289,24.25586 c -0.0903,-0.0482 -0.29209,0.34052 -0.64844,1.14062 -0.45485,1.02125 -0.87546,2.32756 -0.93359,2.9043 -0.0589,0.57665 0.2267,0.73005 0.63476,0.33984 0.40807,-0.39021 0.82918,-1.69866 0.93555,-2.90625 0.0828,-0.94616 0.10206,-1.43028 0.0117,-1.47851 z"
             style="fill:#ff6600" />
        </g>
      </g>
    </g>
  </g>
</svg>
